PathFileType  4	(X/Y/Z) C:\Users\antoi\Documents\MyRepositories\mobilecap\ResultsAnalysis
DataRate	CameraRate	NumFrames	NumMarkers	Units	OrigDataRate	OrigDataStartFrame	OrigNumFrames
100.0	100.0	4	51	mm	100.0	1	1441
Frame#	Time	r_knee			r_shank_antsup			r_ankle			r_calc			r_5meta			r_toe			L_knee			L_shank_antsup			L_ankle			L_calc			L_5meta			L_toe			r_sh2			r_sh3			r_sh4			L_sh2			L_sh3			r_thigh1			r_thigh2			r_thigh3			r_thigh4			r_thigh5			L_thigh1			L_thigh2			L_thigh3			L_thigh4			r.ASIS			r.PSIS			L.ASIS			L.PSIS			C7			R_Shoulder			L_Shoulder			R_Sternum			L_Sternum			R_humerus			R_elbow_med			R_elbow_lat			R_forearm			R_wrist_radius			R_wrist_ulna			L_humerus			L_elbow_med			L_elbow_lat			L_forearm			L_wrist_radius			L_wrist_ulna			R_HJC			L_HJC			R_HJC_reg			L_HJC_reg			
		X1	Y1	Z1	X2	Y2	Z2	X3	Y3	Z3	X4	Y4	Z4	X5	Y5	Z5	X6	Y6	Z6	X7	Y7	Z7	X8	Y8	Z8	X9	Y9	Z9	X10	Y10	Z10	X11	Y11	Z11	X12	Y12	Z12	X13	Y13	Z13	X14	Y14	Z14	X15	Y15	Z15	X16	Y16	Z16	X17	Y17	Z17	X18	Y18	Z18	X19	Y19	Z19	X20	Y20	Z20	X21	Y21	Z21	X22	Y22	Z22	X23	Y23	Z23	X24	Y24	Z24	X25	Y25	Z25	X26	Y26	Z26	X27	Y27	Z27	X28	Y28	Z28	X29	Y29	Z29	X30	Y30	Z30	X31	Y31	Z31	X32	Y32	Z32	X33	Y33	Z33	X34	Y34	Z34	X35	Y35	Z35	X36	Y36	Z36	X37	Y37	Z37	X38	Y38	Z38	X39	Y39	Z39	X40	Y40	Z40	X41	Y41	Z41	X42	Y42	Z42	X43	Y43	Z43	X44	Y44	Z44	X45	Y45	Z45	X46	Y46	Z46	X47	Y47	Z47	X48	Y48	Z48	X49	Y49	Z49	X50	Y50	Z50	X51	Y51	Z51	

1	0.00000000	-289.95230	523.43452	-387.19839	-212.97488	444.88252	-394.35441	-285.58716	122.16503	-420.65669	-367.92925	73.62524	-466.23730	-171.21701	48.90003	-379.60070	-114.60971	78.12649	-443.12438	-273.47498	531.33459	-836.28510	-247.32929	457.57858	-859.68140	-295.26376	126.27920	-832.43726	-378.77385	73.91459	-783.93762	-183.61650	50.96432	-862.92529	-127.67114	80.86815	-797.85508	-228.10661	333.92186	-375.37880	-276.51910	458.79986	-355.32684	-307.41100	347.98789	-352.80004	-337.60734	462.16705	-852.14813	-331.10164	340.23204	-855.72628	-601.55172	577.85759	-444.92964	-496.35953	592.54396	-429.58584	-472.12824	547.65502	-384.09033	-588.59876	468.30423	-424.03552	-477.80536	491.84471	-397.25054	-553.09686	596.98529	-813.15594	-413.45967	613.97876	-810.28504	-539.58924	499.16680	-860.23047	-403.18699	511.75598	-860.66162	-662.55975	631.22715	-511.17834	-831.57186	571.37557	-585.20633	-651.96443	627.35992	-754.73535	-831.92360	571.08251	-693.47352	-756.76204	1136.62769	-626.33490	-683.94070	1070.49806	-456.46587	-695.94210	1072.17040	-798.97223	-635.01289	1049.36413	-598.77882	-635.60085	1045.51987	-652.38532	-670.19872	911.52918	-392.77607	-894.52805	755.62634	-418.55424	-709.61089	727.83320	-351.39273	-546.65601	747.15070	-383.27720	-469.33285	786.23371	-421.05599	-465.83512	745.63668	-397.03823	-704.98177	943.04814	-877.60852	-897.09557	715.60888	-810.84558	-701.82616	720.09478	-890.98574	-626.91198	739.47118	-888.24214	-472.88732	789.74028	-836.16022	-463.20376	749.27274	-839.28828	-690.16582	492.54883	-528.33798	-688.59233	494.06440	-735.28723	-679.94024	532.27475	-544.85982	-680.46304	531.83918	-705.77829	
2	0.01000000	-289.93838	523.45113	-387.14576	-212.93556	444.99208	-394.33940	-285.43581	122.39931	-420.48232	-367.86155	73.76683	-465.45548	-171.19120	48.96052	-379.58302	-114.51392	78.18613	-442.99281	-273.46991	531.37236	-836.30527	-247.33502	457.60727	-859.65022	-295.23167	126.42636	-832.46465	-378.74701	73.95992	-783.89988	-183.60707	51.01174	-862.91104	-127.56592	81.01986	-797.99968	-228.12666	333.99343	-375.40821	-276.35718	459.15859	-355.30520	-306.99777	348.42267	-352.42554	-337.61703	462.20283	-852.13600	-331.14542	340.21036	-855.63071	-601.63452	577.79588	-444.89502	-496.35585	592.53971	-429.59528	-472.12500	547.68741	-384.05939	-588.54926	468.35603	-424.00369	-477.77527	491.90477	-397.23267	-553.04612	596.97719	-813.07062	-413.44959	614.00348	-810.24611	-539.57816	499.20527	-860.21638	-403.17402	511.76619	-860.52562	-662.71243	631.11287	-511.05084	-831.63921	571.39325	-585.17027	-651.95772	627.38453	-754.73000	-831.87679	571.05004	-693.33705	-756.74916	1136.67705	-626.38022	-683.88062	1070.55802	-456.46786	-695.89142	1072.19573	-798.96251	-634.91557	1049.37757	-598.74047	-635.49802	1045.60294	-652.42418	-670.25004	911.49924	-392.79783	-891.31158	754.93703	-418.71805	-709.56777	727.90518	-351.39640	-546.58443	747.25370	-383.23034	-469.26624	786.32797	-421.05375	-465.76716	745.68056	-396.98429	-704.87562	943.09084	-877.64812	-895.52119	715.38655	-811.06648	-701.78131	720.11177	-891.02160	-626.85134	739.48372	-888.30681	-472.82105	788.66719	-834.66804	-463.12940	749.25373	-839.36296	-690.24696	492.49006	-528.27437	-688.61111	494.06136	-735.22272	-680.16087	532.26095	-544.73009	-680.51454	531.74999	-705.73238	
3	0.02000000	-289.93964	523.46489	-387.14022	-212.95009	445.00147	-394.33943	-285.42959	122.43459	-420.45231	-367.91568	73.85037	-465.25041	-171.19519	48.93730	-379.63331	-114.50675	78.20012	-442.95756	-273.46735	531.40379	-836.30837	-247.33956	457.63600	-859.64005	-295.22549	126.46867	-832.46709	-378.76108	73.97613	-783.82400	-183.60353	51.04344	-862.90345	-127.53400	81.07140	-798.02977	-228.12946	334.02881	-375.42279	-276.35671	459.24719	-355.31116	-306.68455	348.78081	-352.17284	-337.61472	462.23026	-852.12757	-331.19591	340.15664	-855.48752	-601.58357	577.82983	-444.82317	-496.33041	592.57108	-429.58063	-472.15374	547.68948	-384.06892	-588.60183	468.41297	-424.01113	-477.79078	491.90127	-397.21759	-553.04757	597.00370	-813.06835	-413.43706	614.01039	-810.19526	-539.58083	499.23088	-860.20994	-403.17598	511.77191	-860.47237	-662.73945	631.07543	-511.02465	-831.68573	571.41503	-585.04219	-651.96205	627.40498	-754.71865	-831.84574	571.12447	-693.30429	-756.69074	1136.67024	-626.42497	-683.82333	1070.56116	-456.44858	-695.83068	1072.21906	-798.99446	-634.83789	1049.43116	-598.78327	-635.37862	1045.62668	-652.44121	-670.21765	911.53600	-392.81430	-888.04596	754.23629	-418.88342	-709.52071	727.93140	-351.40974	-546.52087	747.32512	-383.20869	-469.23095	786.39456	-421.04870	-465.67693	745.79433	-396.96189	-704.75776	943.09371	-877.73023	-893.87563	715.15655	-811.29030	-701.73596	720.12959	-891.05172	-626.77600	739.48178	-888.43128	-472.74433	788.23538	-834.18699	-463.05058	749.22993	-839.44533	-690.27773	492.47390	-528.25112	-688.65886	494.08663	-735.19928	-680.25673	532.21315	-544.77019	-680.49480	531.78092	-705.78282	
4	0.03000000	-289.95059	523.46582	-387.14896	-212.98321	444.94552	-394.33786	-285.51212	122.34235	-420.52090	-368.00027	73.94561	-465.03529	-171.21346	48.89240	-379.70404	-114.52221	78.18738	-442.97330	-273.47018	531.41871	-836.29578	-247.34616	457.64601	-859.64235	-295.22804	126.47089	-832.46057	-378.77989	73.99986	-783.79262	-183.60406	51.05278	-862.90843	-127.56406	81.04113	-797.98164	-228.11439	334.03405	-375.42005	-276.46113	459.16090	-355.33269	-306.70222	348.75529	-352.19347	-337.60728	462.24876	-852.10625	-331.24587	340.09722	-855.36674	-601.46267	577.91533	-444.75597	-496.35208	592.55071	-429.58489	-472.17172	547.67778	-384.07212	-588.64980	468.47339	-424.01528	-477.82599	491.85502	-397.20880	-553.09375	597.01553	-813.09803	-413.43278	614.00839	-810.16311	-539.58733	499.23216	-860.20377	-403.16213	511.73697	-860.41221	-662.66832	631.09812	-511.09553	-831.70528	571.47677	-584.94984	-651.97114	627.41077	-754.70793	-831.87500	571.20434	-693.31363	-756.58819	1136.63632	-626.47515	-683.74543	1070.57471	-456.43264	-695.74324	1072.24163	-799.07645	-634.75652	1049.47843	-598.85474	-635.24148	1045.58632	-652.44673	-670.10897	911.60996	-392.80811	-884.71520	753.52040	-419.05083	-709.46744	727.94268	-351.42266	-546.48926	747.35248	-383.22993	-469.20646	786.42299	-421.04196	-465.59692	745.88633	-396.96304	-704.65886	943.06945	-877.81261	-892.13473	714.91628	-811.51798	-701.69147	720.12848	-891.09506	-626.69876	739.47685	-888.54200	-472.65397	788.22398	-834.40076	-462.94875	749.17574	-839.54212	-690.27945	492.49919	-528.26012	-688.72942	494.10458	-735.20885	-680.26233	532.24045	-544.84278	-680.51435	531.83586	-705.79955	
